<?xml version="1.0" encoding="UTF-8"?>
<svg version="1.1" xmlns="http://www.w3.org/2000/svg" width="512" height="512">
<path d="M0 0 C6.77995104 6.48355973 10.88103628 13.67197024 15 22 C15.53367187 21.49210937 16.06734375 20.98421875 16.6171875 20.4609375 C24.3654029 13.30255165 32.18582494 8.50813058 42 4.75 C42.6401001 4.50362793 43.2802002 4.25725586 43.93969727 4.00341797 C64.83944103 -3.62668907 89.29109977 -2.09966515 109.3125 7.1875 C124.98610327 15.56815249 136.11229795 27.9888685 141.75 44.875 C146.22594098 61.2953092 142.72978684 75.8897239 136 91 C136.63164062 90.97679688 137.26328125 90.95359375 137.9140625 90.9296875 C160.82258522 90.46755592 180.12476269 97.60836613 196.6875 113.3125 C207.80523087 124.77887052 212.45327195 139.51522288 212.2734375 155.3046875 C210.76409422 175.70238384 200.47066783 191.15885506 185.3125 204.25 C179.82230272 208.482765 173.67977366 211.38288217 167.44140625 214.3359375 C163.98910297 215.90819425 163.98910297 215.90819425 161 218 C161.969375 218.721875 162.93875 219.44375 163.9375 220.1875 C176.12189764 230.6878752 181.6384897 245.55209999 183.22265625 261.19921875 C183.96714585 278.71090897 176.12669 293.63092157 165.25 306.625 C151.17211398 321.91186478 129.68163114 331.09394759 109 332 C108.25105469 332.03996094 107.50210937 332.07992188 106.73046875 332.12109375 C94.99632325 332.44335623 83.93757818 330.12663206 73 326 C73.061875 327.216875 73.12375 328.43375 73.1875 329.6875 C73.08148091 346.65055464 65.0030028 361.59257349 53.47363281 373.55419922 C36.60580761 390.1034472 14.76958852 396.3125 -8.21264648 396.3125 C-27.73663145 396.06552082 -45.60912238 389.6394015 -59.5078125 375.66796875 C-72 362.29467085 -72 362.29467085 -72 355 C-73.01578125 355.72445313 -74.0315625 356.44890625 -75.078125 357.1953125 C-96.64420739 372.41579754 -118.76054387 380.14331951 -145.43994141 376.68359375 C-150.0872033 375.83545559 -154.52492889 374.5199295 -159 373 C-160.07507813 372.63777344 -161.15015625 372.27554687 -162.2578125 371.90234375 C-177.27998322 366.23541234 -189.58098795 355.19780479 -197 341 C-203.46721189 324.96915357 -203.86248607 309.21230715 -198 293 C-196.73787598 290.29442602 -195.3963724 287.63854416 -194 285 C-195.1859375 285.04640625 -196.371875 285.0928125 -197.59375 285.140625 C-218.08682056 285.70082431 -235.66488856 281.14921434 -251.53125 267.3828125 C-262.77296903 256.53241913 -270.2207152 242.88412565 -270.51928711 227.05981445 C-270.51292236 226.15320068 -270.50655762 225.24658691 -270.5 224.3125 C-270.49427979 223.35496826 -270.48855957 222.39743652 -270.48266602 221.41088867 C-270.03643868 203.49718981 -261.51064259 189.40707766 -249 177 C-242.25505442 170.59701845 -234.76459152 166.60507602 -226.44140625 162.6640625 C-222.98910297 161.09180575 -222.98910297 161.09180575 -220 159 C-220.4846875 158.56171875 -220.969375 158.1234375 -221.46875 157.671875 C-232.4310225 147.29987871 -240.55899549 134.21585812 -241.23828125 118.84765625 C-241.7066199 98.69643665 -235.97217737 82.90365586 -222 68 C-204.76491261 51.66895273 -182.16959988 44.39339188 -158.6640625 44.73828125 C-149.9209178 45.36279159 -141.26480341 47.06650496 -133 50 C-132.84144531 48.91203125 -132.68289062 47.8240625 -132.51953125 46.703125 C-129.24303421 25.5412068 -120.03305599 8.34043218 -102.67578125 -4.546875 C-92.20847004 -11.8652751 -79.67868759 -17.1652363 -67 -19 C-66.21238281 -19.12117188 -65.42476562 -19.24234375 -64.61328125 -19.3671875 C-41.24465465 -22.23150347 -17.42858706 -16.21193177 0 0 Z M-109 11 C-120.88513864 23.88775139 -124.84810102 38.761236 -126 56 C-131.5972248 58.59491593 -134.96209553 57.58050953 -140.5 55.6875 C-159.81999432 49.38897813 -179.9117726 51.34479528 -198.20947266 60.07275391 C-214.09405303 68.29877467 -226.4553595 81.28258808 -232.5 98.25 C-236.16623159 111.80196319 -235.05612185 126.10287316 -228.08203125 138.375 C-223.89518731 144.97046595 -219.07330555 150.15392284 -212.87109375 154.90234375 C-211 157 -211 157 -210.47265625 160.06640625 C-211 163 -211 163 -212.65625 164.734375 C-215.22151503 166.11961812 -217.77570325 167.21008027 -220.5 168.25 C-235.52868206 174.39311092 -247.49224607 183.00898778 -256 197 C-256.70962891 198.13501953 -256.70962891 198.13501953 -257.43359375 199.29296875 C-264.06771787 211.04540822 -265.54942194 225.06521518 -262 238 C-256.67252191 252.91622786 -247.08372662 263.61922348 -233 271 C-220.77388809 276.5519542 -209.44548717 278.25641525 -196.15234375 278.56640625 C-195.25644531 278.59605469 -194.36054688 278.62570312 -193.4375 278.65625 C-192.22900391 278.68428711 -192.22900391 278.68428711 -190.99609375 278.71289062 C-189 279 -189 279 -187 281 C-186.45237025 285.90760509 -187.6605964 288.97375228 -189.875 293.3125 C-196.07070973 306.25919532 -197.0291504 319.22195829 -192.2578125 332.96875 C-185.55958248 349.11106831 -173.72499461 359.16730188 -157.84765625 365.93359375 C-139.57841773 372.77516044 -118.62464956 371.94027893 -100.73828125 364.234375 C-91.84492287 360.13283889 -84.2352612 354.96484482 -77.109375 348.20703125 C-75 347 -75 347 -71.98046875 346.88671875 C-68.50455192 348.18506252 -67.72311623 349.51011153 -66.1887207 352.81225586 C-65.89956787 353.47233643 -65.61041504 354.13241699 -65.3125 354.8125 C-58.07711909 369.62090115 -46.70270212 379.74563828 -30.98925781 385.27563477 C-10.75361447 392.00843166 10.32668917 390.54898886 29.4375 381.1875 C35.48360802 378.06524638 40.93468534 374.57610922 46 370 C46.67160156 369.43152344 47.34320313 368.86304688 48.03515625 368.27734375 C60.6188166 356.85749014 64.95153774 341.87166513 66.5703125 325.59765625 C67 322 67 322 68 320 C73.13285201 318.45546399 76.9994986 319.62910616 81.875 321.375 C100.11113783 327.76994621 119.99973405 325.52776372 137.50390625 317.71875 C154.06490188 309.57703148 166.05338092 297.27602977 173.12109375 280.30859375 C177.4906503 267.28355199 176.71516643 254.26145889 170.9375 241.875 C166.97067642 234.38855216 162.02099556 228.09842948 155.29296875 222.9140625 C153 221 153 221 151.9375 218 C152 215 152 215 153.66015625 212.95703125 C156.21565229 210.81962972 158.38358418 209.83940101 161.5 208.6875 C179.69574932 201.39151303 193.25140739 189.80577658 201.41015625 171.90625 C203.29127572 166.99780922 204.61003731 162.26449627 205 157 C205.0515625 156.3503125 205.103125 155.700625 205.15625 155.03125 C205.75554759 141.24740543 200.57754806 129.0903964 191.75 118.75 C179.94325846 106.29171586 164.03319087 99.46837852 147 98 C143.40029329 98.01656942 139.80550735 98.0626894 136.20703125 98.16015625 C131.28524089 97.91436648 131.28524089 97.91436648 129 96 C127.75552432 92.3400863 127.83285802 90.46491711 129.14453125 86.81640625 C129.97017578 85.20572266 129.97017578 85.20572266 130.8125 83.5625 C134.62934609 76.0285354 136.37464106 69.56855385 136.3125 61.1875 C136.30686035 60.39142334 136.3012207 59.59534668 136.29541016 58.77514648 C136.17123112 52.7512338 135.48702677 47.54360167 133 42 C132.62101562 41.1234375 132.24203125 40.246875 131.8515625 39.34375 C126.36556818 28.05465186 117.19147405 19.51931573 106 14 C104.64841797 13.32517578 104.64841797 13.32517578 103.26953125 12.63671875 C92.87374348 7.88075106 80.47780719 4.91426148 69 6 C67.96875 6.0928125 66.9375 6.185625 65.875 6.28125 C48.86968549 8.25508115 34.65706583 14.32956601 21.6875 25.5 C18.51210986 28.16088339 16.56616041 29.5 12.375 29.5 C11.26125 29.335 10.1475 29.17 9 29 C8.690625 27.8553125 8.690625 27.8553125 8.375 26.6875 C2.46183811 10.82947494 -7.95334515 0.23476389 -23.296875 -6.90625 C-53.00289035 -18.926025 -86.47636517 -12.13135516 -109 11 Z " fill="#FC624E" transform="translate(270,31)"/>
<path d="M0 0 C2.84394913 2.17013766 5.46423983 4.47840609 8 7 C7.55910433 12.39828359 4.49342674 16.26026538 1.5625 20.625 C0.80743164 21.7696875 0.80743164 21.7696875 0.03710938 22.9375 C-1.301098 24.96347132 -2.64824943 26.98305084 -4 29 C-4.66 29.99 -5.32 30.98 -6 32 C-9.16477194 31.31454248 -11.9217769 30.19061029 -14.875 28.875 C-18.9836984 27.18532817 -21.63083788 26.62026459 -26 28 C-26.33 28.99 -26.66 29.98 -27 31 C-26.21262503 33.15070864 -26.21262503 33.15070864 -24.25439453 33.62548828 C-21.75306254 34.04102253 -19.46454055 34.06235483 -16.9296875 33.9921875 C-15.95 33.97542969 -14.9703125 33.95867187 -13.9609375 33.94140625 C-11.92688746 33.89763555 -9.89299361 33.84574333 -7.859375 33.78515625 C0.05975638 33.67143504 7.60113093 34.2519782 13.9375 39.375 C18.96031763 45.76767699 21.40211662 51.82969235 20.875 60 C19.89466486 67.50821382 16.31846885 74.48862363 10.390625 79.30859375 C1.88422701 85.23143698 -7.57980827 86.25974808 -17.6875 86.375 C-18.4710083 86.38893799 -19.2545166 86.40287598 -20.06176758 86.41723633 C-25.34366517 86.37452856 -33.03635116 85.96364884 -37 82 C-37.08700342 80.36527118 -37.10701063 78.72685945 -37.09765625 77.08984375 C-37.09443359 76.10048828 -37.09121094 75.11113281 -37.08789062 74.09179688 C-37.07951172 73.05087891 -37.07113281 72.00996094 -37.0625 70.9375 C-37.05798828 69.89271484 -37.05347656 68.84792969 -37.04882812 67.77148438 C-37.03699913 65.1809334 -37.02051689 62.59049441 -37 60 C-35.87722656 59.95101562 -34.75445312 59.90203125 -33.59765625 59.8515625 C-25.86613308 59.47797144 -18.50489083 59.04678841 -11 57 C-12.54107422 57.05220703 -12.54107422 57.05220703 -14.11328125 57.10546875 C-33.77228572 57.57642857 -33.77228572 57.57642857 -41.9375 51.375 C-47.87815351 45.67653141 -50.10987939 37.44634633 -50.3125 29.4375 C-50.18553016 19.00057893 -46.33546995 10.41001741 -39 3 C-28.14495605 -5.73959247 -12.07334863 -7.22319306 0 0 Z M-38.3359375 13.5703125 C-42.2899379 19.34352435 -44.12768279 26.00836668 -43 33 C-41.67337757 38.12104788 -40.2651875 42.59803548 -36.6875 46.5625 C-27.81641542 51.30749873 -18.18686403 50.64894721 -8.4375 49.25 C-5.08874264 48.87367385 -4.33000457 48.80813688 -1.3125 50.5625 C0 53 0 53 0.25 55.9375 C-1.60991188 60.49428411 -4.6087534 62.0284199 -9 64 C-15.75068176 66.3002323 -22.9392641 66.5130527 -30 67 C-30 70.63 -30 74.26 -30 78 C-18.4514861 80.93021995 -6.72824044 80.69777363 4 75 C8.42626157 71.64242141 11.30596422 68.34212214 13 63 C13.64337199 57.44156528 13.71513975 52.56780637 11.375 47.4375 C5.74236161 41.65663428 -0.28967071 41.24348408 -8 41 C-9.41543204 41.00977555 -10.83082476 41.0271777 -12.24609375 41.05078125 C-12.98947998 41.06133545 -13.73286621 41.07188965 -14.4987793 41.08276367 C-15.965464 41.11028091 -17.43196873 41.15267567 -18.89770508 41.2121582 C-24.01913334 41.32421004 -27.45301062 40.40621139 -32 38 C-34.42249711 34.46719172 -34.29096697 30.96993507 -33.578125 26.87109375 C-33 25 -33 25 -31.1875 22.5 C-23.89146426 19.06657142 -16.4628468 20.86775806 -9 23 C-6.03 18.71 -3.06 14.42 0 10 C-5.3966491 4.6033509 -9.97708582 2.86551402 -17.4375 2.5625 C-26.69773539 2.89504989 -32.49660679 6.47471143 -38.3359375 13.5703125 Z " fill="#FC624F" transform="translate(344,161)"/>
<path d="M0 0 C5.88190464 4.97767154 9.99800834 10.10999778 13.3671875 17.02734375 C13.7796875 17.82269531 14.1921875 18.61804688 14.6171875 19.4375 C19.17141571 29.66870019 19.00735802 42.89336848 15.8046875 53.52734375 C10.83218659 65.9759824 3.28137322 75.25855565 -8.6953125 81.40234375 C-22.27352065 87.20797948 -35.95129303 87.02372111 -49.7578125 81.96484375 C-62.61860024 76.24145654 -70.51498587 65.54482503 -75.65234375 52.859375 C-80.06966972 40.10016652 -77.91372584 26.75807425 -72.3203125 14.77734375 C-65.71742431 2.41157978 -54.79336855 -4.62176204 -41.6328125 -8.97265625 C-26.93330173 -11.95790394 -12.06720003 -9.0414481 0 0 Z M-62.91015625 13.734375 C-69.74277865 22.82904472 -71.54635464 32.83282741 -70.6328125 44.02734375 C-68.57226226 55.73265435 -62.17048191 65.09787196 -52.6328125 72.02734375 C-42.85165117 78.24740265 -32.01662317 80.40816842 -20.6328125 78.02734375 C-9.00659828 74.66027132 -0.08810585 67.60807611 6.18359375 57.25 C11.20086279 47.82813174 12.02995182 37.15591282 9.60546875 26.76171875 C7.85593785 21.69983488 5.62601185 17.30455071 2.3671875 13.02734375 C1.8309375 12.22296875 1.2946875 11.41859375 0.7421875 10.58984375 C-7.47297182 1.72611922 -17.74442626 -2.63328973 -29.6953125 -3.28515625 C-43.27207893 -3.07910077 -54.38800215 3.61961159 -62.91015625 13.734375 Z " fill="#FC624E" transform="translate(424.6328125,403.97265625)"/>
<path d="M0 0 C7.27941183 5.09682839 10.75026125 13.5368048 12.8828125 21.92578125 C14.57264309 32.96600776 13.86891449 43.85090457 8.60546875 53.79296875 C3.76291561 59.68256041 -0.93580572 64.35652179 -8.70703125 65.60546875 C-15.77949502 66.06923687 -15.77949502 66.06923687 -18.70703125 64.60546875 C-18.47983398 65.49854736 -18.47983398 65.49854736 -18.24804688 66.40966797 C-17.56526065 69.09932047 -16.88610305 71.78987617 -16.20703125 74.48046875 C-15.96855469 75.41761719 -15.73007812 76.35476562 -15.484375 77.3203125 C-15.25878906 78.21621094 -15.03320312 79.11210937 -14.80078125 80.03515625 C-14.59130859 80.86257324 -14.38183594 81.68999023 -14.16601562 82.54248047 C-13.70703125 84.60546875 -13.70703125 84.60546875 -13.70703125 86.60546875 C-17.80941469 87.77846964 -21.91421384 88.94278181 -26.01953125 90.10546875 C-27.18677734 90.43933594 -28.35402344 90.77320313 -29.55664062 91.1171875 C-30.67490234 91.43300781 -31.79316406 91.74882812 -32.9453125 92.07421875 C-33.97696533 92.36748047 -35.00861816 92.66074219 -36.0715332 92.96289062 C-38.70703125 93.60546875 -38.70703125 93.60546875 -41.70703125 93.60546875 C-41.96355469 92.33703125 -42.22007812 91.06859375 -42.484375 89.76171875 C-45.06873933 77.11297518 -47.80450074 64.50010313 -50.62356567 51.90185547 C-51.00618497 50.1910255 -51.38763477 48.47993348 -51.76779175 46.76855469 C-54.02233086 36.63066581 -56.43444049 26.55830804 -59.15808105 16.53507996 C-60.70703125 10.80246152 -60.70703125 10.80246152 -60.70703125 8.60546875 C-57.87406225 7.81247956 -55.0406734 7.02104603 -52.20703125 6.23046875 C-51.41554687 6.00875 -50.6240625 5.78703125 -49.80859375 5.55859375 C-47.44353042 4.89947774 -45.07627967 4.24937253 -42.70703125 3.60546875 C-41.96839844 3.40405273 -41.22976562 3.20263672 -40.46875 2.99511719 C-37.06300155 2.09944958 -34.25662983 1.60546875 -30.70703125 1.60546875 C-30.04703125 2.26546875 -29.38703125 2.92546875 -28.70703125 3.60546875 C-27.40765625 2.42984375 -27.40765625 2.42984375 -26.08203125 1.23046875 C-18.04617785 -5.38178358 -8.7637548 -4.85063638 0 0 Z M-21.70703125 6.60546875 C-22.36703125 7.47171875 -23.02703125 8.33796875 -23.70703125 9.23046875 C-25.70703125 11.60546875 -25.70703125 11.60546875 -29.20703125 12.60546875 C-32.70703125 12.60546875 -32.70703125 12.60546875 -34.44140625 10.9921875 C-36.79825493 9.21268904 -36.79825493 9.21268904 -40.37890625 10.1875 C-41.74392802 10.57845284 -43.10336414 10.98935015 -44.45703125 11.41796875 C-45.15441406 11.62228516 -45.85179687 11.82660156 -46.5703125 12.03710938 C-48.28764927 12.54290034 -49.99810226 13.07195982 -51.70703125 13.60546875 C-51.10090747 19.14002993 -50.15283298 24.41969442 -48.81640625 29.8203125 C-48.43472522 31.39890421 -48.05313698 32.97751836 -47.67163086 34.55615234 C-47.47294403 35.37138367 -47.2742572 36.18661499 -47.06954956 37.02655029 C-43.22582505 52.81778322 -39.69299093 68.62654938 -36.70703125 84.60546875 C-35.45921875 84.46238281 -34.21140625 84.31929688 -32.92578125 84.171875 C-32.22388672 84.09138916 -31.52199219 84.01090332 -30.79882812 83.92797852 C-27.97245678 83.49221328 -25.37851054 82.60727349 -22.70703125 81.60546875 C-22.83980469 80.80882812 -22.97257812 80.0121875 -23.109375 79.19140625 C-23.64192708 75.99609375 -24.17447917 72.80078125 -24.70703125 69.60546875 C-24.95582031 68.58710938 -25.20460938 67.56875 -25.4609375 66.51953125 C-25.70703125 63.60546875 -25.70703125 63.60546875 -24.69140625 60.734375 C-22.70703125 58.60546875 -22.70703125 58.60546875 -19.59765625 58.2578125 C-18.39625 58.35191406 -17.19484375 58.44601563 -15.95703125 58.54296875 C-9.6616495 58.75692096 -6.60956194 58.56921696 -1.70703125 54.60546875 C4.45781434 48.72084341 6.39158766 41.57956712 6.66796875 33.16796875 C6.34748582 23.70036872 3.84859609 14.67440024 -2.70703125 7.60546875 C-9.33754889 2.87851012 -14.38075577 2.81150466 -21.70703125 6.60546875 Z " fill="#FC624E" transform="translate(279.70703125,171.39453125)"/>
<path d="M0 0 C10.60755084 6.16015164 15.84973268 15.18423557 19.46875 26.625 C23.53928742 42.00258582 22.38529163 57.32716686 14.80859375 71.37890625 C10.50093722 78.56690625 5.01196208 82.70463326 -2.6875 85.875 C-13.79975966 87.8788501 -21.94535533 86.77966446 -31.5 80.5625 C-34.4375 78.0625 -34.4375 78.0625 -36.5 75.5625 C-37.325 74.675625 -38.15 73.78875 -39 72.875 C-48.25021904 61.50130301 -51.55706656 45.90840332 -50.5 31.5625 C-48.73796317 21.3012267 -45.38147812 11.69584664 -37.5 4.5625 C-26.39518369 -2.9736231 -12.49753117 -5.73996024 0 0 Z M-35.5 13.5625 C-36.551875 14.67625 -36.551875 14.67625 -37.625 15.8125 C-43.51608439 24.4527571 -44.26541896 35.43230469 -42.875 45.5625 C-40.46021553 57.79634183 -35.2417769 68.83564474 -24.8125 76.0625 C-19.08258606 79.72638813 -13.16012919 80.54690713 -6.484375 79.13671875 C1.15979942 76.683962 6.67018922 71.68695603 10.375 64.625 C16.02377878 51.93902207 16.06087218 38.68182158 11.5 25.5625 C7.95893941 16.97147328 3.70673934 9.85706587 -4.77734375 5.48046875 C-16.11358382 1.65835051 -27.80130117 4.54402423 -35.5 13.5625 Z " fill="#FC624E" transform="translate(132.5,201.4375)"/>
<path d="M0 0 C7.98302083 5.61900127 12.44229577 11.98245266 16 21 C16.33902344 21.804375 16.67804688 22.60875 17.02734375 23.4375 C21.13238496 35.24185813 20.99933441 51.99244144 16.2578125 63.53125 C11.85473513 72.1733149 6.19909287 80.21824218 -3.125 83.9375 C-13.1727865 86.66994452 -22.34115512 85.92228069 -31.3828125 80.75390625 C-42.04986171 73.60539118 -48.17663519 62.27059626 -51.34375 49.984375 C-53.93477146 36.43026812 -53.33934887 21.52002288 -45.4375 9.87890625 C-34.90008025 -3.89418859 -15.57945528 -9.45529441 0 0 Z M-39 13 C-45.76203224 23.87950732 -46.45173762 35.39451914 -44.3515625 47.84375 C-41.56397017 58.6129101 -36.48733617 68.71784497 -27 75 C-21.1432364 78.37890208 -15.60868826 78.93630659 -9 78 C-1.11987817 75.62564015 3.92935637 71.06154095 8 64 C13.66966303 52.72796963 13.74877091 39.00665531 10.375 27 C6.63019961 16.61668981 1.79565876 8.71891262 -8.3828125 3.86328125 C-19.97578475 0.0393307 -31.23846197 4.07754816 -39 13 Z " fill="#FC624E" transform="translate(206,189)"/>
<path d="M0 0 C1.76325079 1.76325079 1.61406901 4.34947326 1.98046875 6.74609375 C2.17229736 7.96458008 2.36412598 9.18306641 2.56176758 10.43847656 C2.71447617 11.41693542 2.71447617 11.41693542 2.87026978 12.41516113 C5.11695783 26.73777046 8.04683821 40.782076 11.52856445 54.86230469 C12 57 12 57 12 59 C8.08527676 60.00771516 4.167929 61.0048281 0.25 62 C-0.86117188 62.28617188 -1.97234375 62.57234375 -3.1171875 62.8671875 C-4.18710937 63.13789063 -5.25703125 63.40859375 -6.359375 63.6875 C-7.83615723 64.06455078 -7.83615723 64.06455078 -9.34277344 64.44921875 C-12 65 -12 65 -16 65 C-16.28198242 63.76548096 -16.56396484 62.53096191 -16.85449219 61.2590332 C-17.915691 56.61907009 -18.98330778 51.98060232 -20.05273438 47.3425293 C-20.51213155 45.34617836 -20.96985534 43.34944149 -21.42578125 41.35229492 C-24.87913048 26.21995885 -24.87913048 26.21995885 -29.30957031 11.35229492 C-30 9 -30 9 -30 6 C-25.9397655 4.99064584 -21.87647836 3.9941633 -17.8125 3 C-16.66201172 2.71382812 -15.51152344 2.42765625 -14.32617188 2.1328125 C-13.21435547 1.86210937 -12.10253906 1.59140625 -10.95703125 1.3125 C-9.93585205 1.06113281 -8.91467285 0.80976563 -7.86254883 0.55078125 C-5.14226741 0.02737358 -2.76045484 -0.18216356 0 0 Z M-7 8 C-10.11820137 8.35079086 -10.11820137 8.35079086 -13.5625 9.25 C-14.73941406 9.52328125 -15.91632813 9.7965625 -17.12890625 10.078125 C-18.07636719 10.38234375 -19.02382813 10.6865625 -20 11 C-21.56301084 14.12602169 -20.30753625 16.43934826 -19.453125 19.7734375 C-19.28125671 20.45242096 -19.10938843 21.13140442 -18.93231201 21.83096313 C-18.37813379 24.01405066 -17.81426284 26.19449967 -17.25 28.375 C-16.88476599 29.80582365 -16.52017559 31.23681175 -16.15625 32.66796875 C-15.44538426 35.46017429 -14.73101633 38.25144435 -14.01367188 41.04199219 C-12.64980583 46.35486154 -11.3244196 51.67717439 -10 57 C-5.71 56.01 -1.42 55.02 3 54 C2.287664 47.30884387 0.98243079 40.82390696 -0.4375 34.25 C-2.00323812 26.98348838 -3.41086222 19.7514586 -4.45727539 12.38964844 C-4.81560951 9.82909694 -4.81560951 9.82909694 -7 8 Z " fill="#FC624E" transform="translate(384,147)"/>
<path d="M0 0 C8.591396 6.30035707 10.45068334 17.05293799 12 27 C12.82777636 34.94217863 12.03654994 43.24896772 6.875 49.625 C2.80029398 51.57377244 -0.57016604 51.86244555 -5 51 C-11.99886795 47.09678518 -14.20362029 40.12852445 -16.75390625 32.84765625 C-18.9880099 24.70801987 -19.89034661 13.00951284 -16.3125 5.1875 C-11.73997296 -1.1151724 -7.35700043 -2.15751743 0 0 Z M-8.5625 7.3125 C-12.55706709 12.00177442 -11.44539815 19.25312659 -11 25 C-9.48554469 32.44881551 -7.50900019 38.6440276 -2 44 C0.475 43.505 0.475 43.505 3 43 C7.0014149 33.24655117 5.03937212 22.57103385 1.125 13.0625 C-0.40039808 9.84095032 -1.70547615 7.64726192 -5 6 C-7.08486562 5.78560264 -7.08486562 5.78560264 -8.5625 7.3125 Z " fill="#FC624E" transform="translate(122,220)"/>
<path d="M0 0 C6.87236859 4.95449829 10.37589393 13.99581694 11.71875 22.15625 C12.70936239 32.17244191 13.49049749 41.11589984 7.1875 49.375 C4.32272579 51.50311799 2.57285524 51.92994401 -1 52 C-6.83870418 50.54032395 -9.54692476 47.95936822 -12.64453125 42.84375 C-17.70790752 32.22087413 -20.56900569 18.87341759 -16.75 7.4375 C-12.92097306 -0.08380291 -8.26037854 -2.28823846 0 0 Z M-6 6 C-9.17593051 8.97103177 -10.81113916 10.84989198 -11.203125 15.3125 C-11.37499381 25.16631204 -9.72038862 35.87500664 -2.8125 43.375 C-2.214375 43.91125 -1.61625 44.4475 -1 45 C1.72906656 43.99934226 2.79467816 43.41208453 4.11328125 40.765625 C7.01888599 31.70321021 5.04464455 20.46517115 1.05078125 11.984375 C-0.79495328 8.97867293 -2.67129733 7.18882238 -6 6 Z " fill="#FC624E" transform="translate(193,206)"/>
<path d="M0 0 C3.88297792 3.26523143 7.11178062 6.39784185 8.75 11.3125 C9.22326956 17.12362953 9.60997977 22.46023588 7.125 27.8125 C1.88163149 33.33183528 -2.49674943 37.13595621 -10.4140625 37.37890625 C-16.30820713 37.04470217 -20.79270946 35.19498158 -25.25 31.3125 C-29.49325438 26.49284979 -30.49637011 20.59986525 -30.25 14.3125 C-28.91332256 7.52265176 -25.38362791 3.50603954 -19.75 -0.4375 C-13.29209353 -3.66645324 -6.35793971 -3.30123792 0 0 Z M-20.625 9.5625 C-22.6442663 12.97971989 -23.18036048 15.3430473 -23.25 19.3125 C-21.59983782 23.98795951 -19.44514888 26.67833675 -15.25 29.3125 C-11.37505417 30.57606929 -9.54685195 30.40462647 -5.625 29.1875 C-1.9382592 27.13931067 -0.23022412 26.03532134 1.75 22.3125 C2.48203069 18.18274194 2.62896092 14.29319995 0.90234375 10.40234375 C-1.75111675 6.74146773 -4.89207142 5.16288113 -9.1953125 4.3671875 C-13.99237358 4.23950907 -17.25805602 6.3727636 -20.625 9.5625 Z " fill="#FC624E" transform="translate(503.25,463.6875)"/>
<path d="M0 0 C4.7862283 4.15646142 6.14971422 8.76868118 6.76171875 15 C6.81443617 16.41618896 6.85211661 17.83301495 6.875 19.25 C6.89344971 19.92699951 6.91189941 20.60399902 6.9309082 21.30151367 C6.86881556 26.31626277 5.51064827 29.20729065 2.375 33.0625 C-0.84559622 34.67279811 -4.13282861 34.51245285 -7.625 34.0625 C-10.87385116 32.47417277 -12.20632607 31.10130183 -13.55859375 27.74609375 C-15.8865415 20.27215624 -18.21569367 12.41597741 -15.4375 4.8125 C-11.55517927 -1.07791767 -6.57622544 -2.34865194 0 0 Z M-6.625 6.0625 C-8.23558197 7.25978772 -8.23558197 7.25978772 -9.625 9.0625 C-9.84566092 11.34893458 -9.84566092 11.34893458 -9.4375 13.8125 C-9.32148438 14.69164062 -9.20546875 15.57078125 -9.0859375 16.4765625 C-8.49725204 19.7791877 -7.6646884 22.87412224 -6.625 26.0625 C-4.975 26.3925 -3.325 26.7225 -1.625 27.0625 C0.45457769 22.90334461 -0.28754184 17.60338436 -0.625 13.0625 C-1.71294971 9.45246469 -1.71294971 9.45246469 -3.625 7.0625 C-4.615 6.7325 -5.605 6.4025 -6.625 6.0625 Z " fill="#FC624E" transform="translate(262.625,187.9375)"/>
<path d="M0 0 C4.79215116 2.63098495 4.79215116 2.63098495 6.1875 5.75 C7.01933254 10.6475309 6.74493012 13.80933667 4.1875 18.125 C-0.36263081 22.10636446 -4.40496092 23.49657483 -10.375 24.125 C-15.20119387 23.59850612 -19.00406455 22.26675231 -22.75 19.125 C-24.4472872 15.3310639 -24.55486923 11.82242547 -23.8125 7.75 C-18.5354207 -0.88522067 -9.23770195 -3.53949843 0 0 Z M-15.8125 8.75 C-16.78156827 11.33414426 -16.78156827 11.33414426 -16.8125 13.75 C-14.49765576 15.8867793 -13.08566474 16.70843145 -9.9375 17.1875 C-5.99798448 16.63596783 -3.87725739 15.24456997 -0.8125 12.75 C-0.4825 11.76 -0.1525 10.77 0.1875 9.75 C-1.72208381 7.16644543 -2.9526325 6.71298387 -6.125 5.875 C-10.37434138 5.73095453 -12.36348979 6.28642128 -15.8125 8.75 Z " fill="#FC624E" transform="translate(393.8125,213.25)"/>
</svg>
